<svg width="40" height="40" viewBox="0 0 40 40" fill="none" xmlns="http://www.w3.org/2000/svg">
<path d="M7.82131 19.22L24.64 19.22L24.64 15.6807L26.1389 15.6807L26.1389 24.3041L24.64 24.3041L24.64 20.7669L7.76665 20.7669C10.3461 22.0328 26.1389 30.323 26.8266 30.6511C29.7607 28.2275 31.6616 24.3538 31.6616 19.9872C31.6616 15.6206 29.8623 11.749 26.9351 9.32544C27.4191 9.79489 10.3918 17.9537 7.82131 19.22Z" fill="white"/>
<path d="M36.5068 12.9209C38.3236 17.4811 38.3254 22.5633 36.5107 27.124L36.5098 27.124C35.6065 29.3553 34.2644 31.3832 32.5625 33.0869L32.5449 33.1045C30.88 34.8265 28.8854 36.1965 26.6797 37.1328C24.4855 38.0473 22.1295 38.5123 19.752 38.5L19.7402 38.5C17.9245 38.5047 16.1183 38.2373 14.3818 37.707L14.3809 37.707C12.6654 37.1838 11.0427 36.3941 9.57226 35.3682L9.56055 35.3604L9.54785 35.3516C7.04348 33.676 4.99992 31.3998 3.60351 28.7314C2.19774 26.0416 1.47576 23.0479 1.50098 20.0137L1.50098 19.9971C1.49406 17.7009 1.90696 15.4237 2.71875 13.2783L2.88672 12.8506L2.88965 12.8437L3.06152 12.4297C3.94766 10.3712 5.21833 8.49827 6.80664 6.91211L6.81348 6.90527L7.13672 6.58594C8.77302 5.01044 10.692 3.75407 12.7939 2.88379C15.0356 1.95572 17.4407 1.48508 19.8672 1.5L19.8799 1.5C22.226 1.49575 24.5485 1.9697 26.7051 2.89258L26.708 2.89453C28.766 3.76937 30.6409 5.02002 32.2373 6.58105L32.5566 6.90039C34.2528 8.63138 35.5947 10.6766 36.5068 12.9209Z" stroke="white" stroke-width="3"/>
</svg>
